<?xml version="1.0" standalone="no"?><!DOCTYPE svg PUBLIC "-//W3C//DTD SVG 1.1//EN" "http://www.w3.org/Graphics/SVG/1.1/DTD/svg11.dtd"><svg t="1725085606281" class="icon" viewBox="0 0 1024 1024" version="1.1" xmlns="http://www.w3.org/2000/svg" p-id="12089" xmlns:xlink="http://www.w3.org/1999/xlink" width="16" height="16"><path d="M512 0C228.266667 0 0 228.266667 0 512s228.266667 512 512 512 512-228.266667 512-512S795.733333 0 512 0z m0 70.4c243.2 0 441.6 198.4 441.6 441.6 0 87.466667-25.6 168.533333-70.4 236.8-72.533333-78.933333-170.666667-132.266667-281.6-151.466667 70.4-34.133333 119.466667-106.666667 119.466667-187.733333 0-115.2-93.866667-209.066667-209.066667-209.066667s-209.066667 93.866667-209.066667 209.066667c0 83.2 46.933333 155.733333 119.466667 187.733333-110.933333 21.333333-209.066667 74.666667-281.6 153.6-44.8-68.266667-70.4-149.333333-70.4-238.933333C70.4 268.8 268.8 70.4 512 70.4z m0 0" p-id="12090" fill="#cdcdcd"></path></svg>