<?xml version="1.0" standalone="no"?><!DOCTYPE svg PUBLIC "-//W3C//DTD SVG 1.1//EN" "http://www.w3.org/Graphics/SVG/1.1/DTD/svg11.dtd"><svg t="1725088016724" class="icon" viewBox="0 0 1024 1024" version="1.1" xmlns="http://www.w3.org/2000/svg" p-id="13301" xmlns:xlink="http://www.w3.org/1999/xlink" width="16" height="16"><path d="M225.925915 895.900656c-4.696253 0-9.392507-1.372751-13.366259-4.190503-6.863755-4.696253-10.765258-12.643759-10.259508-20.880265l6.358005-112.999083C118.995837 689.771255 67.8428 593.678685 67.8428 492.311861c0-200.782897 199.121146-364.140267 443.976575-364.140267 245.072179 0 444.410075 163.35737 444.410075 364.140267 0 200.566147-199.410146 363.706766-444.410075 363.706766-51.731038 0-101.222324-6.936005-147.462358-20.663515l-128.605094 58.378043c-3.106752 1.445001-6.502505 2.167502-9.826008 2.167501z m285.82121-720.260777c-218.62866 0-396.43604 142.043604-396.436041 316.671982 0 89.734566 47.901785 175.278628 131.495097 234.668171 6.647005 4.696253 10.404008 12.499259 9.970507 20.663516l-4.913004 86.627813 101.005574-45.878784c5.346504-2.456502 11.487758-2.817752 17.051013-1.0115 44.000282 14.01651 91.757567 21.169266 141.826854 21.169265 218.84541 0 396.941791-141.826854 396.941791-316.238481 0-174.628378-178.02413-316.671982-396.941791-316.671982z" fill="#6c6c6c" p-id="13302"></path></svg>