<svg width="48" height="48" viewBox="0 0 48 48" fill="none" xmlns="http://www.w3.org/2000/svg">
<path d="M24 39C22.3431 39 21 40.3432 21 42C21 43.6569 22.3431 45 24 45V39ZM24 9C32.2843 9 39 15.7158 39 23.9999H45C45 12.402 35.5979 3 24 3V9ZM24 45C35.5981 45 45 35.5978 45 23.9999H39C39 32.2842 32.2843 39 24 39V45Z" fill="url(#paint0_linear_6828_107020)"/>
<path d="M24 6C14.0589 6 6 14.0589 6 24C6 33.9411 14.0589 42 24 42" stroke="url(#paint1_linear_6828_107020)" stroke-width="6" stroke-linejoin="round"/>
<defs>
<linearGradient id="paint0_linear_6828_107020" x1="24" y1="36" x2="24" y2="8.99999" gradientUnits="userSpaceOnUse">
<stop stop-color="#495BF7"/>
<stop offset="1" stop-color="#495BF7" stop-opacity="0.5"/>
</linearGradient>
<linearGradient id="paint1_linear_6828_107020" x1="22.5" y1="42" x2="24" y2="9" gradientUnits="userSpaceOnUse">
<stop stop-color="#495BF7" stop-opacity="0"/>
<stop offset="1" stop-color="#495BF7" stop-opacity="0.5"/>
</linearGradient>
</defs>
</svg>
