<?xml version="1.0" standalone="no"?><!DOCTYPE svg PUBLIC "-//W3C//DTD SVG 1.1//EN" "http://www.w3.org/Graphics/SVG/1.1/DTD/svg11.dtd"><svg t="1723858856378" class="icon" viewBox="0 0 1024 1024" version="1.1" xmlns="http://www.w3.org/2000/svg" p-id="17886" xmlns:xlink="http://www.w3.org/1999/xlink" width="48" height="48"><path d="M920.868571 394.971429c0 219.428571-221.037714 394.971429-486.253714 394.971428-58.88 0-110.445714-7.314286-162.011428-21.942857l73.654857-43.885714c29.476571 0 51.565714 7.314286 81.042285 7.314285 235.739429 0 427.227429-160.914286 427.227429-365.714285 0-197.485714-191.488-365.714286-427.227429-365.714286C191.561143 0 0 160.914286 0 365.714286c0 117.028571 66.267429 219.428571 162.084571 285.257143v182.857142l95.817143-58.514285c80.969143 87.771429 198.875429 146.285714 338.797715 146.285714 29.476571 0 51.565714 0 81.042285-7.314286l184.173715 109.714286v-182.857143C965.046857 775.314286 1024 672.914286 1024 555.885714c0-102.4-44.178286-190.171429-125.220571-256 14.701714 29.257143 22.089143 58.514286 22.089142 95.085715z m-235.739428-65.828572c29.476571 0 44.178286 21.942857 44.178286 43.885714 0 29.257143-22.089143 43.885714-44.178286 43.885715-29.476571 0-44.178286-21.942857-44.178286-43.885715-7.387429-29.257143 14.701714-43.885714 44.178286-43.885714z m-169.472 43.885714c0 29.257143-22.089143 43.885714-44.178286 43.885715-29.476571 0-51.565714-21.942857-51.565714-43.885715 0-29.257143 22.089143-43.885714 44.178286-43.885714 29.476571 0 51.565714 14.628571 51.565714 43.885714z m-331.483429 0c0-29.257143 22.089143-43.885714 44.178286-43.885714 29.476571 0 44.251429 21.942857 44.251429 43.885714 0 29.257143-22.162286 43.885714-44.251429 43.885715s-44.178286-21.942857-44.178286-43.885715z" fill="#36ab60" p-id="17887"></path></svg>