<?xml version="1.0" standalone="no"?><!DOCTYPE svg PUBLIC "-//W3C//DTD SVG 1.1//EN" "http://www.w3.org/Graphics/SVG/1.1/DTD/svg11.dtd"><svg t="1713685708503" class="icon" viewBox="0 0 1024 1024" version="1.1" xmlns="http://www.w3.org/2000/svg" p-id="4418" width="48" height="48" xmlns:xlink="http://www.w3.org/1999/xlink"><path d="M512 22C241.38 22 22 241.38 22 512s219.38 490 490 490 490-219.38 490-490S782.62 22 512 22z m263.33 312.74l-23.11 124.2-4.02 21.61c-1.81 9.71-11.14 16.12-20.85 14.31l-20.54-3.82-125.41-23.33c-9.71-1.81-16.12-11.14-14.31-20.86l4.02-21.61c1.81-9.71 11.14-16.12 20.85-14.31l61.93 11.52c-46.05-80.06-146.94-112.77-231.92-72.7-89.46 42.18-127.92 149.28-85.74 238.74 42.18 89.46 149.28 127.92 238.74 85.74 17.67-8.33 38.76-0.76 47.09 16.91 8.33 17.67 0.76 38.75-16.91 47.09-49.22 23.21-102.28 28.91-152.09 19.64-76.42-14.22-145.21-63.68-180.82-139.2-58.82-124.75-5.19-274.09 119.56-332.92 115.19-54.32 251.35-12.74 317.85 92.16l9.96-53.55c1.81-9.71 11.14-16.12 20.85-14.31l20.54 3.82c9.73 1.82 16.13 11.16 14.33 20.87z" fill="#1296db" p-id="4419"></path></svg>