<?xml version="1.0" standalone="no"?><!DOCTYPE svg PUBLIC "-//W3C//DTD SVG 1.1//EN" "http://www.w3.org/Graphics/SVG/1.1/DTD/svg11.dtd"><svg t="1725090189312" class="icon" viewBox="0 0 1024 1024" version="1.1" xmlns="http://www.w3.org/2000/svg" p-id="40272" xmlns:xlink="http://www.w3.org/1999/xlink" width="16" height="16"><path d="M762.818 707.16l-169.194-65.933s-32.254-12.526-44.79-24.849c-8.055-7.917-7.477-26.599-0.348-50.465 7.13-23.866 93.857-120.844 93.857-208.935 0-136.067-89.437-246.375-199.762-246.375s-199.76 110.308-199.76 246.375c0 84.376 77.28 184.962 86.826 203.246 9.545 18.285 7.22 46.141-0.311 54.587-11.315 12.688-52.659 25.393-52.659 25.393l-152.525 67.98c-35.637 12.796-63.55 46.403-63.55 84.324v17.98c0 41.379 33.607 66.7 74.914 66.7h615.94c41.307 0 74.914-25.322 74.914-66.7v-17.98c-0.002-37.922-27.915-72.554-63.552-85.348zM733.546 422.426c-17.6 0-31.883-8.94-31.883-27.822 0-18.88 14.283-27.82 31.883-27.82h224.031c17.596 0 30.854 8.941 30.854 27.82 0 18.88-15.306 27.822-32.901 27.822H733.546zM781.05 549.904c-17.6 0-31.882-8.94-31.882-27.82s14.283-27.82 31.883-27.82h176.956c17.596 0 29.83 8.94 29.83 27.82 0 18.88-13.259 27.82-30.854 27.82H781.05zM839.897 669.983c-17.6 0-31.883-8.94-31.883-27.82s14.283-27.82 31.883-27.82h118.625c17.595 0 30.832 8.94 30.832 27.82 0 18.88-14.26 27.82-31.856 27.82H839.897z" fill="#07c160" p-id="40273"></path></svg>