<?xml version="1.0" standalone="no"?><!DOCTYPE svg PUBLIC "-//W3C//DTD SVG 1.1//EN" "http://www.w3.org/Graphics/SVG/1.1/DTD/svg11.dtd"><svg t="1725090132293" class="icon" viewBox="0 0 1024 1024" version="1.1" xmlns="http://www.w3.org/2000/svg" p-id="40000" xmlns:xlink="http://www.w3.org/1999/xlink" width="16" height="16"><path d="M124.992 900q-42.016 0-68.992-20.992-31.008-24-32-63.008v-3.008q-2.016-31.008 4-47.008 15.008-50.016 67.008-74.016 50.016-22.016 148.992-64.992l44.992-18.016q8.992-4 8.992-4.992l0.992-3.008v-11.488q0-7.488-6.016-17.504l-20-32q-20.992-32.992-30.016-50.016-20.992-36.992-32-80-7.008-35.008-3.008-75.008 4-47.008 23.008-90.016 40-88.992 116-124.992 48.992-22.016 98.496-18.496t95.488 34.496q51.008 32.992 80.992 91.008 35.008 68.992 32.992 146.016-0.992 38.016-24 87.008-14.016 32-44 76l-11.008 16.992q-10.016 15.008-14.016 22.016-8 16-6.016 31.008 10.016 8 35.008 18.016l172 66.016q28.992 11.008 48 32.512t26.016 51.008 0 58.496q-4.992 22.016-19.008 38.016-19.008 20-52 28-11.008 2.016-28.992 2.016H124.896z m306.016-744.992q-30.016 0-60.992 15.008-56.992 27.008-88 98.016-15.008 34.016-19.008 75.008-3.008 34.016 2.016 58.016 8.992 35.008 26.016 67.008 12.992 24 39.008 66.016l8 12.992q12 20 12.992 40 0.992 26.016-7.008 39.488t-28.992 23.488q-4.992 3.008-16 7.008l-7.008 2.016q-11.008 4.992-16 7.008l-4.992 2.016q-95.008 42.016-143.008 64-30.016 12.992-39.008 43.008-3.008 8-2.016 30.016v4q0.992 16.992 14.496 27.008t36.512 10.016h586.016q11.008 0 18.016-0.992 28.992-7.008 32.992-28.992 4-19.008 0-38.016-7.008-35.008-43.008-48l-74.016-30.016-91.008-35.008q-32-12.992-47.008-26.016-12-8.992-15.008-24.992-6.016-31.008 10.016-62.016 7.008-12 19.008-30.016l8-12q27.008-42.016 39.008-68 16.992-40 18.016-68 2.016-64-27.008-120.992-24-47.008-60.992-72-40-26.016-80-26.016zM864 368h104.992q7.008 0 15.008 1.504t12.512 8.512 4.512 16.992q-0.992 20-20.992 24-6.016 2.016-12.992 2.016h-208q-8.992 0-16-2.016-19.008-6.016-16.992-27.008 0-8.992 6.016-15.008t14.016-8q4.992-0.992 12.992-0.992h104.992z m22.016 176h-82.016q-10.016 0-20-4-8-4-11.008-11.488T771.488 512t7.488-14.016 15.008-7.008q4-0.992 11.008-0.992h163.008q8.992 0 16.512 2.496t12 8.992 3.488 16.512q0 20-16.992 24Q976 544 968 544h-82.016z m38.976 115.008h-67.008q-15.008 0-23.008-7.008-12.992-11.008-7.008-28 4.992-15.008 22.016-18.016H968q8 0 16.992 2.016 15.008 6.016 15.008 24t-14.016 24q-8.992 3.008-18.016 3.008h-43.008z m0 0z" p-id="40001" fill="#6c6c6c"></path></svg>